<svg xmlns="http://www.w3.org/2000/svg" xmlns:xlink="http://www.w3.org/1999/xlink" id="Calque_2" x="0px" y="0px" width="982.451px" height="152.992px" viewBox="0 0 982.451 152.992" xml:space="preserve"><path fill="#005085" d="M113.295,50.384H72.28l1.622-4.593c0.758-2.142,0.716-3.508-0.126-4.095 c-0.842-0.586-2.487-0.879-4.934-0.879c-2.658,0-4.808,0.395-6.452,1.187c-1.643,0.791-2.748,1.99-3.317,3.6 c-0.73,2.067-0.515,3.625,0.65,4.672c1.093,1.046,4.806,2.31,11.14,3.789c18.155,4.257,29.301,7.75,33.442,10.48 c4.14,2.73,5.138,7.133,2.993,13.205c-1.56,4.414-4.125,7.668-7.697,9.76c-3.572,2.092-9.664,3.846-18.276,5.262 c-8.613,1.417-18.304,2.125-29.072,2.125c-11.82,0-21.619-0.817-29.397-2.45c-7.782-1.632-12.519-3.712-14.213-6.237 c-1.696-2.527-1.722-6.111-0.081-10.756l1.433-4.057H51.01l-2.664,7.54c-0.821,2.322-0.771,3.814,0.148,4.478 c0.92,0.664,2.848,0.995,5.785,0.995s5.271-0.422,7.003-1.263c1.729-0.842,2.889-2.093,3.475-3.751 c1.29-3.649,0.768-6.034-1.563-7.158c-2.401-1.121-8.627-2.997-18.676-5.625c-10.043-2.653-16.635-4.58-19.778-5.781 c-3.142-1.198-5.511-2.856-7.105-4.974c-1.595-2.118-1.811-4.823-0.648-8.116c1.677-4.745,4.564-8.214,8.662-10.41 c4.095-2.193,10.07-3.909,17.92-5.147c7.849-1.238,17.02-1.857,27.51-1.857c11.468,0,21.003,0.677,28.603,2.029 c7.598,1.353,12.346,3.055,14.243,5.11c1.896,2.055,1.975,5.543,0.235,10.468L113.295,50.384z"></path><path fill="#005085" d="M137.439,31.629h44.477c12.027,0,21.155,0.345,27.38,1.034c6.225,0.688,10.734,1.684,13.527,2.985 c2.792,1.301,4.437,2.877,4.938,4.727c0.5,1.85,0.065,4.714-1.305,8.591l-1.907,5.398c-1.398,3.956-3.535,6.839-6.413,8.649 c-2.879,1.813-7.478,3.203-13.799,4.172c-6.322,0.971-14.308,1.455-23.958,1.455h-11.854l-8.816,24.954h-44.163L137.439,31.629z  M177.856,42.232L172.285,58c1.25,0.026,2.328,0.039,3.237,0.039c4.056,0,7-0.364,8.83-1.092c1.831-0.727,3.151-2.238,3.963-4.535 l1.798-5.09c0.748-2.118,0.326-3.496-1.267-4.134C187.252,42.55,183.589,42.232,177.856,42.232"></path><polygon fill="#005085" points="245.273,31.63 318.912,31.63 314.529,44.03 285.054,44.03 280.902,55.78 308.49,55.78  304.326,67.569 276.737,67.569 271.924,81.194 304.337,81.194 299.956,93.595 223.38,93.595 "></polygon><polygon fill="#005085" points="334.542,31.63 408.18,31.63 403.798,44.03 374.323,44.03 370.171,55.78 397.759,55.78  393.594,67.569 366.006,67.569 361.193,81.194 393.606,81.194 389.224,93.595 312.649,93.595 "></polygon><path fill="#005085" d="M423.809,31.629h33.043c21.329,0,35.626,0.358,42.892,1.072c7.264,0.715,12.565,1.888,15.907,3.521 c3.338,1.633,5.143,3.451,5.416,5.454c0.271,2.003-0.63,5.939-2.703,11.808l-7.667,21.701c-1.966,5.563-3.998,9.281-6.093,11.156 c-2.097,1.876-5.115,3.344-9.056,4.401c-3.94,1.06-8.607,1.8-14.001,2.221c-5.394,0.42-13.372,0.631-23.93,0.631h-55.701 L423.809,31.629z M464.226,42.232l-14.401,40.761c6.362,0,10.443-0.465,12.241-1.396s3.427-3.464,4.888-7.598l8.505-24.076 c0.992-2.806,1.381-4.604,1.172-5.395c-0.211-0.791-1.124-1.372-2.741-1.742C472.272,42.417,469.051,42.232,464.226,42.232"></path><polygon fill="#005085" points="647.819,31.63 612.6,59.608 628.337,93.595 582.708,93.595 574.208,67.033 564.823,93.595  520.661,93.595 542.553,31.63 586.715,31.63 578.21,55.704 606.383,31.63 "></polygon><path fill="#005085" d="M738.475,31.63l3.361,61.965h-45.132l1.565-11.138h-15.798l-6.59,11.138h-45.656l44.419-61.965H738.475z  M700.994,71.473c0.244-7.019,1.067-15.693,2.469-26.026c-8.691,11.865-14.581,20.541-17.671,26.026H700.994z"></path><path fill="#005085" d="M771.229,31.629h31.26c20.838,0,34.844,0.294,42.016,0.88c7.17,0.587,12.654,2.086,16.453,4.498 c3.797,2.411,4.765,6.258,2.898,11.539c-1.703,4.823-4.492,8.063-8.364,9.722c-3.874,1.659-10.693,2.653-20.461,2.985 c8.461,0.791,13.962,1.851,16.5,3.176c2.538,1.327,3.979,2.545,4.32,3.657c0.343,1.108-0.37,4.166-2.137,9.166l-5.774,16.342 h-41.015l7.275-20.591c1.172-3.316,1.179-5.371,0.026-6.162c-1.154-0.791-4.772-1.188-10.856-1.188l-9.872,27.94h-44.163 L771.229,31.629z M811.646,42.232l-4.868,13.778c4.964,0,8.532-0.249,10.7-0.747c2.169-0.497,3.736-2.111,4.701-4.842l1.203-3.406 c0.694-1.965,0.188-3.254-1.519-3.865C820.155,42.538,816.75,42.232,811.646,42.232"></path><polygon fill="#005085" points="975.885,31.63 971.503,44.03 945.279,44.03 927.767,93.595 883.605,93.595 901.116,44.03  874.998,44.03 879.379,31.63 "></polygon><g>	<defs>		<path id="SVGID_1_" d="M514.219,15.941c0,0.771,91.632,1.397,204.666,1.397s204.667-0.626,204.667-1.397   s-91.633-1.396-204.667-1.396S514.219,15.17,514.219,15.941"></path>	</defs>	<clipPath id="SVGID_2_">		<use xlink:href="#SVGID_1_"></use>	</clipPath>	<defs>		<filter id="Adobe_OpacityMaskFilter" filterUnits="userSpaceOnUse" x="514.219" y="14.545" width="409.333" height="2.793">					</filter>	</defs>	<mask maskUnits="userSpaceOnUse" x="514.219" y="14.545" width="409.333" height="2.793" id="SVGID_3_">		<g filter="url(#Adobe_OpacityMaskFilter)">							<linearGradient id="SVGID_4_" gradientUnits="userSpaceOnUse" x1="-36.1152" y1="162.4063" x2="-35.1152" y2="162.4063" gradientTransform="matrix(409.333 0 0 -409.333 15297.1953 66494.0938)">				<stop offset="0" style="stop-color:#000000"></stop>				<stop offset="0.016" style="stop-color:#000000"></stop>				<stop offset="0.0206" style="stop-color:#0D0D0D"></stop>				<stop offset="0.0423" style="stop-color:#454545"></stop>				<stop offset="0.0647" style="stop-color:#777777"></stop>				<stop offset="0.0873" style="stop-color:#A1A1A1"></stop>				<stop offset="0.1102" style="stop-color:#C3C3C3"></stop>				<stop offset="0.1333" style="stop-color:#DDDDDD"></stop>				<stop offset="0.1569" style="stop-color:#F0F0F0"></stop>				<stop offset="0.1813" style="stop-color:#FBFBFB"></stop>				<stop offset="0.2074" style="stop-color:#FFFFFF"></stop>				<stop offset="0.867" style="stop-color:#FFFFFF"></stop>				<stop offset="1" style="stop-color:#000000"></stop>			</linearGradient>			<rect x="514.219" y="14.545" clip-path="url(#SVGID_2_)" fill="url(#SVGID_4_)" width="409.333" height="2.793"></rect>		</g>	</mask>			<linearGradient id="SVGID_5_" gradientUnits="userSpaceOnUse" x1="-36.1152" y1="162.4063" x2="-35.1152" y2="162.4063" gradientTransform="matrix(409.333 0 0 -409.333 15297.1797 66494.0938)">		<stop offset="0" style="stop-color:#005085"></stop>		<stop offset="0.016" style="stop-color:#005085"></stop>		<stop offset="0.0233" style="stop-color:#005085"></stop>		<stop offset="0.2074" style="stop-color:#005085"></stop>		<stop offset="0.867" style="stop-color:#005085"></stop>		<stop offset="1" style="stop-color:#005085"></stop>	</linearGradient>			<rect x="514.219" y="14.545" clip-path="url(#SVGID_2_)" mask="url(#SVGID_3_)" fill="url(#SVGID_5_)" width="409.333" height="2.793"></rect></g><g>	<defs>		<path id="SVGID_6_" d="M496.885,110.774c0,0.823,88.646,1.49,198,1.49c33.148,0,64.386-0.062,91.836-0.17l0.996-2.636   c-27.689-0.111-59.283-0.174-92.832-0.174C585.532,109.285,496.885,109.952,496.885,110.774"></path>	</defs>	<clipPath id="SVGID_7_">		<use xlink:href="#SVGID_6_"></use>	</clipPath>	<defs>		<filter id="Adobe_OpacityMaskFilter_1_" filterUnits="userSpaceOnUse" x="496.885" y="109.285" width="290.832" height="2.979">					</filter>	</defs>	<mask maskUnits="userSpaceOnUse" x="496.885" y="109.285" width="290.832" height="2.979" id="SVGID_8_">		<g filter="url(#Adobe_OpacityMaskFilter_1_)">							<linearGradient id="SVGID_9_" gradientUnits="userSpaceOnUse" x1="-36.1152" y1="162.4063" x2="-35.1152" y2="162.4063" gradientTransform="matrix(290.832 0 0 -290.832 11000.3223 47343.6406)">				<stop offset="0" style="stop-color:#000000"></stop>				<stop offset="0.016" style="stop-color:#000000"></stop>				<stop offset="0.0267" style="stop-color:#0D0D0D"></stop>				<stop offset="0.0768" style="stop-color:#454545"></stop>				<stop offset="0.1284" style="stop-color:#777777"></stop>				<stop offset="0.1805" style="stop-color:#A1A1A1"></stop>				<stop offset="0.2331" style="stop-color:#C3C3C3"></stop>				<stop offset="0.2865" style="stop-color:#DDDDDD"></stop>				<stop offset="0.341" style="stop-color:#F0F0F0"></stop>				<stop offset="0.3971" style="stop-color:#FBFBFB"></stop>				<stop offset="0.4574" style="stop-color:#FFFFFF"></stop>				<stop offset="1" style="stop-color:#FFFFFF"></stop>			</linearGradient>			<rect x="496.885" y="109.285" clip-path="url(#SVGID_7_)" fill="url(#SVGID_9_)" width="290.832" height="2.979"></rect>		</g>	</mask>			<linearGradient id="SVGID_10_" gradientUnits="userSpaceOnUse" x1="-36.1157" y1="162.4053" x2="-35.1157" y2="162.4053" gradientTransform="matrix(290.832 0 0 -290.832 11000.3086 47343.6445)">		<stop offset="0" style="stop-color:#005085"></stop>		<stop offset="0.016" style="stop-color:#005085"></stop>		<stop offset="0.0329" style="stop-color:#005085"></stop>		<stop offset="0.4574" style="stop-color:#005085"></stop>		<stop offset="1" style="stop-color:#005085"></stop>	</linearGradient>			<rect x="496.885" y="109.285" clip-path="url(#SVGID_7_)" mask="url(#SVGID_8_)" fill="url(#SVGID_10_)" width="290.832" height="2.979"></rect></g><g>	<defs>		<path id="SVGID_11_" d="M578.219,122.108c0,0.822,88.647,1.489,198,1.489c2.061,0,4.111,0,6.158-0.001l1.125-2.978   c-2.419-0.001-4.843-0.001-7.283-0.001C666.867,120.618,578.219,121.285,578.219,122.108"></path>	</defs>	<clipPath id="SVGID_12_">		<use xlink:href="#SVGID_11_"></use>	</clipPath>	<defs>		<filter id="Adobe_OpacityMaskFilter_2_" filterUnits="userSpaceOnUse" x="578.219" y="120.618" width="205.283" height="2.979">					</filter>	</defs>	<mask maskUnits="userSpaceOnUse" x="578.219" y="120.618" width="205.283" height="2.979" id="SVGID_13_">		<g filter="url(#Adobe_OpacityMaskFilter_2_)">							<linearGradient id="SVGID_14_" gradientUnits="userSpaceOnUse" x1="-36.1147" y1="162.4063" x2="-35.1147" y2="162.4063" gradientTransform="matrix(205.2822 0 0 -205.2822 7991.9961 33461.1758)">				<stop offset="0" style="stop-color:#000000"></stop>				<stop offset="0.016" style="stop-color:#000000"></stop>				<stop offset="0.0267" style="stop-color:#0D0D0D"></stop>				<stop offset="0.0768" style="stop-color:#454545"></stop>				<stop offset="0.1284" style="stop-color:#777777"></stop>				<stop offset="0.1805" style="stop-color:#A1A1A1"></stop>				<stop offset="0.2331" style="stop-color:#C3C3C3"></stop>				<stop offset="0.2865" style="stop-color:#DDDDDD"></stop>				<stop offset="0.341" style="stop-color:#F0F0F0"></stop>				<stop offset="0.3971" style="stop-color:#FBFBFB"></stop>				<stop offset="0.4574" style="stop-color:#FFFFFF"></stop>				<stop offset="1" style="stop-color:#FFFFFF"></stop>			</linearGradient>			<rect x="578.219" y="120.618" clip-path="url(#SVGID_12_)" fill="url(#SVGID_14_)" width="205.283" height="2.979"></rect>		</g>	</mask>			<linearGradient id="SVGID_15_" gradientUnits="userSpaceOnUse" x1="-36.1147" y1="162.4063" x2="-35.1147" y2="162.4063" gradientTransform="matrix(205.2822 0 0 -205.2822 7991.9961 33461.1758)">		<stop offset="0" style="stop-color:#005085"></stop>		<stop offset="0.016" style="stop-color:#005085"></stop>		<stop offset="0.0329" style="stop-color:#005085"></stop>		<stop offset="0.4574" style="stop-color:#005085"></stop>		<stop offset="1" style="stop-color:#005085"></stop>	</linearGradient>			<rect x="578.219" y="120.618" clip-path="url(#SVGID_12_)" mask="url(#SVGID_13_)" fill="url(#SVGID_15_)" width="205.283" height="2.979"></rect></g><g>	<defs>		<path id="SVGID_16_" d="M640.219,133.44c0,0.776,65.915,1.442,137.787,1.723l1.304-3.449   C706.747,131.991,640.219,132.66,640.219,133.44"></path>	</defs>	<clipPath id="SVGID_17_">		<use xlink:href="#SVGID_16_"></use>	</clipPath>	<defs>		<filter id="Adobe_OpacityMaskFilter_3_" filterUnits="userSpaceOnUse" x="640.219" y="131.714" width="139.091" height="3.449">					</filter>	</defs>	<mask maskUnits="userSpaceOnUse" x="640.219" y="131.714" width="139.091" height="3.449" id="SVGID_18_">		<g filter="url(#Adobe_OpacityMaskFilter_3_)">							<linearGradient id="SVGID_19_" gradientUnits="userSpaceOnUse" x1="-36.1152" y1="162.4063" x2="-35.1152" y2="162.4063" gradientTransform="matrix(139.0908 0 0 -139.0908 5663.4907 22722.668)">				<stop offset="0" style="stop-color:#000000"></stop>				<stop offset="0.016" style="stop-color:#000000"></stop>				<stop offset="0.0282" style="stop-color:#0D0D0D"></stop>				<stop offset="0.0856" style="stop-color:#454545"></stop>				<stop offset="0.1447" style="stop-color:#777777"></stop>				<stop offset="0.2043" style="stop-color:#A1A1A1"></stop>				<stop offset="0.2645" style="stop-color:#C3C3C3"></stop>				<stop offset="0.3256" style="stop-color:#DDDDDD"></stop>				<stop offset="0.3879" style="stop-color:#F0F0F0"></stop>				<stop offset="0.4522" style="stop-color:#FBFBFB"></stop>				<stop offset="0.5213" style="stop-color:#FFFFFF"></stop>				<stop offset="1" style="stop-color:#FFFFFF"></stop>			</linearGradient>			<rect x="640.219" y="131.714" clip-path="url(#SVGID_17_)" fill="url(#SVGID_19_)" width="139.091" height="3.449"></rect>		</g>	</mask>			<linearGradient id="SVGID_20_" gradientUnits="userSpaceOnUse" x1="-36.1152" y1="162.4063" x2="-35.1152" y2="162.4063" gradientTransform="matrix(139.0908 0 0 -139.0908 5663.4907 22722.668)">		<stop offset="0" style="stop-color:#005085"></stop>		<stop offset="0.016" style="stop-color:#005085"></stop>		<stop offset="0.0354" style="stop-color:#005085"></stop>		<stop offset="0.5213" style="stop-color:#005085"></stop>		<stop offset="1" style="stop-color:#005085"></stop>	</linearGradient>			<rect x="640.219" y="131.714" clip-path="url(#SVGID_17_)" mask="url(#SVGID_18_)" fill="url(#SVGID_20_)" width="139.091" height="3.449"></rect></g><polygon fill="#005085" points="806.649,134.929 801.032,134.869 804.965,124.388 794.668,124.279 790.734,134.761 785.133,134.702  794.792,108.965 800.393,109.023 796.541,119.29 806.838,119.398 810.692,109.132 816.309,109.191 "></polygon><path fill="#005085" d="M836.701,116.781l-14.924,19.775c-3.588,4.756-7.319,7.115-11.196,7.078 c-1.477-0.014-2.635-0.181-3.476-0.501l1.574-4.522c0.655,0.45,1.457,0.68,2.407,0.688c1.565,0.016,2.896-0.662,3.992-2.032 l1.834-2.27l-1.621-18.419l6.739,0.063l-0.218,11.217c-0.01,0.695-0.117,1.518-0.318,2.464l0.077,0.001 c0.357-0.692,0.851-1.499,1.479-2.417l7.623-11.183L836.701,116.781z"></path><path fill="#005085" d="M854.846,127.777l-12.861-0.122c-0.726,2.671,0.614,4.021,4.016,4.054c2.169,0.021,4.242-0.439,6.217-1.381 l-1.424,4.092c-2.14,0.893-4.666,1.324-7.58,1.297c-3.184-0.03-5.367-0.876-6.552-2.538c-1.186-1.662-1.266-3.965-0.24-6.908 c1.063-3.052,2.854-5.459,5.374-7.225c2.521-1.765,5.168-2.634,7.939-2.607c2.875,0.027,4.82,0.845,5.84,2.45 c1.017,1.606,1.053,3.773,0.102,6.502L854.846,127.777z M850.417,124.242c0.917-2.633,0.233-3.959-2.051-3.981 c-0.975-0.009-1.951,0.36-2.926,1.107c-0.975,0.746-1.734,1.682-2.281,2.805L850.417,124.242z M854.655,114.018l-4.369-0.041 l-4.027-5.855l5.41,0.053L854.655,114.018z"></path><path fill="#005085" d="M874.807,122.244c-0.604-0.377-1.392-0.572-2.367-0.581c-1.321-0.013-2.512,0.43-3.57,1.326 c-1.061,0.897-1.86,2.123-2.402,3.678l-3.057,8.776l-6.084-0.058l6.401-18.379l6.084,0.058l-1.188,3.411h0.077 c1.83-2.479,3.996-3.708,6.498-3.684c0.643,0.006,1.117,0.083,1.427,0.229L874.807,122.244z"></path><path fill="#005085" d="M894.868,128.128l-12.859-0.122c-0.725,2.671,0.613,4.021,4.016,4.054c2.169,0.021,4.242-0.439,6.217-1.381 l-1.426,4.092c-2.138,0.893-4.664,1.325-7.578,1.297c-3.184-0.03-5.368-0.876-6.553-2.538c-1.186-1.662-1.266-3.965-0.24-6.908 c1.063-3.052,2.854-5.458,5.375-7.224s5.168-2.635,7.939-2.608c2.875,0.027,4.821,0.845,5.839,2.449 c1.018,1.607,1.053,3.774,0.103,6.503L894.868,128.128z M890.44,124.593c0.917-2.633,0.233-3.959-2.051-3.98 c-0.976-0.01-1.952,0.359-2.926,1.106c-0.976,0.747-1.736,1.682-2.281,2.805L890.44,124.593z"></path><path fill="#005085" d="M896.977,135.24l1.602-4.596c0.805,0.572,1.656,1.001,2.556,1.286c0.898,0.283,1.791,0.431,2.677,0.438 c1.078,0.011,1.977-0.119,2.695-0.388c0.719-0.271,1.176-0.687,1.371-1.249c0.125-0.358,0.088-0.658-0.11-0.9 c-0.199-0.242-0.489-0.454-0.869-0.639c-0.38-0.184-0.808-0.349-1.285-0.498c-0.476-0.148-0.927-0.314-1.353-0.5 c-0.688-0.281-1.273-0.584-1.76-0.907c-0.486-0.322-0.859-0.695-1.117-1.118c-0.26-0.423-0.398-0.91-0.417-1.463 c-0.021-0.552,0.101-1.206,0.362-1.959c0.359-1.028,0.908-1.912,1.648-2.649c0.738-0.737,1.593-1.337,2.56-1.804 c0.966-0.465,2.005-0.803,3.116-1.015c1.109-0.211,2.223-0.313,3.34-0.302c0.873,0.008,1.736,0.08,2.592,0.214 c0.854,0.134,1.676,0.325,2.466,0.572l-1.525,4.379c-0.624-0.424-1.34-0.746-2.146-0.966c-0.807-0.217-1.633-0.329-2.48-0.338 c-0.397-0.004-0.785,0.026-1.16,0.088c-0.377,0.063-0.721,0.155-1.034,0.278c-0.313,0.123-0.581,0.283-0.805,0.479 c-0.223,0.195-0.378,0.419-0.466,0.67c-0.116,0.335-0.1,0.623,0.047,0.865c0.148,0.241,0.378,0.45,0.689,0.628 c0.313,0.177,0.672,0.336,1.08,0.479c0.407,0.143,0.811,0.286,1.211,0.435c0.717,0.271,1.348,0.564,1.894,0.883 c0.546,0.316,0.98,0.687,1.304,1.109c0.322,0.424,0.511,0.918,0.564,1.482c0.056,0.566-0.053,1.236-0.323,2.014 c-0.38,1.089-0.958,2.018-1.733,2.784s-1.668,1.389-2.678,1.865s-2.102,0.821-3.276,1.031c-1.175,0.211-2.353,0.312-3.534,0.3 C900.51,136.21,898.61,135.88,896.977,135.24"></path></svg>